<?xml version="1.0" standalone="no"?>
<!DOCTYPE svg PUBLIC "-//W3C//DTD SVG 20010904//EN"
 "http://www.w3.org/TR/2001/REC-SVG-20010904/DTD/svg10.dtd">
<svg version="1.0" xmlns="http://www.w3.org/2000/svg"
 width="1820.000000pt" height="1214.000000pt" viewBox="0 0 1820.000000 1214.000000"
 preserveAspectRatio="xMidYMid meet">

<g transform="translate(0.000000,1214.000000) scale(0.100000,-0.100000)"
fill="#000000" stroke="none">
<path d="M5635 9516 c-5 -2 -35 -12 -65 -21 -30 -9 -66 -24 -80 -33 -14 -9
-27 -17 -30 -17 -3 0 -32 -20 -65 -44 -76 -56 -247 -229 -290 -294 -5 -8 -31
-46 -56 -83 -63 -94 -82 -127 -125 -214 -46 -96 -110 -286 -123 -370 -15 -93
-13 -227 4 -310 14 -65 58 -178 75 -190 4 -3 13 -16 20 -29 63 -120 290 -256
395 -237 53 10 122 76 130 125 15 90 -32 157 -142 204 -60 25 -103 57 -103 76
0 5 -4 11 -10 13 -5 2 -19 30 -31 63 -18 52 -21 75 -16 170 6 137 28 209 112
373 67 129 150 246 250 350 63 66 160 134 201 139 l24 4 2 -1108 3 -1108 37
-106 c40 -117 70 -181 99 -212 10 -12 19 -25 19 -30 0 -10 6 -18 103 -123 36
-40 68 -70 70 -68 2 2 14 -7 27 -21 13 -14 28 -25 32 -25 5 0 24 -11 41 -24
47 -34 165 -80 302 -116 107 -29 129 -32 205 -26 248 19 447 111 609 281 l72
76 77 -79 c68 -70 92 -86 207 -144 127 -64 195 -88 340 -122 87 -20 134 -20
252 -1 349 57 627 305 732 655 l25 85 3 988 c2 543 6 987 9 987 3 0 110 -92
239 -205 128 -113 245 -209 260 -215 17 -6 297 -10 771 -10 611 0 750 2 777
14 18 7 136 106 262 220 127 113 235 206 240 206 7 0 9 -430 6 -1295 l-3
-1294 22 -46 c31 -63 82 -96 152 -98 67 -1 109 20 149 76 l31 42 -5 1520 c-4
1367 -6 1524 -20 1556 -22 49 -97 99 -148 99 -65 0 -81 -11 -229 -145 -36 -33
-79 -71 -96 -84 -16 -14 -76 -67 -134 -119 -57 -52 -123 -110 -146 -129 -24
-19 -67 -58 -97 -86 -29 -29 -66 -62 -82 -74 l-29 -23 -651 0 -651 0 -35 33
c-19 17 -73 66 -119 107 -47 41 -87 77 -90 80 -3 3 -26 24 -52 47 -25 23 -43
45 -40 48 4 4 2 5 -4 3 -7 -2 -42 24 -79 57 -101 90 -119 106 -170 150 -25 22
-67 59 -93 82 -28 26 -60 44 -82 48 -39 7 -100 4 -100 -5 0 -3 -15 -14 -34
-24 -56 -30 -77 -93 -78 -229 -1 -62 -4 -593 -7 -1182 l-6 -1070 -34 -79 c-56
-129 -137 -220 -253 -281 -122 -65 -256 -80 -392 -45 -159 40 -287 146 -356
292 -36 77 -64 187 -53 213 2 6 20 17 41 25 123 44 286 185 346 300 55 104 48
186 -21 277 -57 75 -224 158 -368 183 -99 17 -295 15 -386 -4 -265 -55 -439
-218 -400 -373 37 -145 181 -295 365 -379 63 -28 64 -33 45 -126 -27 -133
-135 -280 -260 -353 -195 -114 -451 -92 -629 54 -25 20 -57 44 -72 54 -15 9
-42 45 -62 79 -70 128 -67 62 -67 1188 0 558 -3 1067 -8 1130 -10 137 -37 206
-109 271 -62 58 -122 82 -212 86 -41 1 -79 1 -85 -1z"/>
<path d="M6693 8940 c-117 -28 -192 -167 -153 -285 42 -126 200 -188 313 -121
134 78 156 238 48 346 -61 61 -126 80 -208 60z"/>
<path d="M7842 8934 c-51 -19 -108 -73 -128 -120 -8 -18 -14 -57 -14 -86 1
-220 271 -302 400 -123 32 45 35 55 35 120 0 72 -10 98 -59 153 -52 59 -157
84 -234 56z"/>
<path d="M9603 8006 c-97 -31 -157 -109 -156 -205 1 -72 15 -107 61 -154 46
-48 90 -67 154 -67 86 0 159 45 199 122 23 45 25 131 4 181 -22 53 -81 105
-138 122 -60 18 -69 18 -124 1z"/>
<path d="M10782 8010 c-52 -12 -109 -56 -139 -107 -78 -134 13 -310 167 -321
71 -5 120 10 167 51 131 115 78 328 -93 376 -44 12 -55 12 -102 1z"/>
<path d="M10102 7245 c-120 -27 -182 -81 -190 -166 -9 -100 103 -261 224 -319
71 -34 152 -33 225 2 101 50 195 162 220 263 23 91 -33 173 -144 209 -71 24
-252 30 -335 11z"/>
<path d="M4230 4937 c-3 -2 -40 -7 -83 -10 -42 -3 -81 -8 -86 -11 -8 -5 -7
-39 4 -219 7 -122 13 -245 28 -597 l12 -275 190 0 190 0 2 30 c0 17 2 66 2
111 l1 80 53 3 c208 8 382 152 418 346 15 79 5 199 -21 259 -48 113 -150 199
-286 241 -48 15 -99 29 -113 31 -44 7 -306 17 -311 11z m400 -472 c39 -20 50
-43 50 -104 0 -42 -5 -56 -30 -84 -27 -31 -87 -57 -129 -57 -7 0 -11 45 -11
130 l0 130 45 0 c26 0 59 -7 75 -15z"/>
<path d="M9940 4919 c-211 -54 -348 -181 -406 -374 -26 -86 -26 -280 0 -355
60 -176 168 -281 346 -338 85 -27 107 -31 187 -39 82 -8 86 -8 193 1 117 9
149 16 159 35 5 9 11 79 15 156 3 77 11 169 16 204 5 36 7 68 4 73 -3 4 -66 8
-141 8 l-136 0 7 -52 c3 -29 9 -95 13 -145 l6 -93 -36 0 c-60 0 -143 37 -180
81 -41 47 -55 95 -51 170 4 98 68 185 169 231 42 19 66 23 157 22 l106 0 -4
30 c-2 17 -8 94 -14 171 -6 77 -13 159 -16 181 -6 41 -6 41 -57 48 -104 12
-260 6 -337 -15z"/>
<path d="M6106 4923 l-258 -3 6 -188 c4 -103 9 -198 12 -212 l5 -26 97 8 c53
5 102 6 108 4 10 -4 14 -53 29 -376 3 -52 8 -139 11 -192 l6 -98 164 0 c149 0
164 2 164 18 0 17 15 283 25 457 3 50 8 114 11 143 l5 52 37 -1 c20 0 67 -3
104 -7 l67 -8 5 61 c10 113 22 360 18 368 -2 4 -83 6 -180 5 -97 -2 -293 -4
-436 -5z"/>
<path d="M7332 4923 c-235 -3 -253 -5 -248 -21 4 -16 8 -71 21 -277 3 -44 9
-215 15 -380 6 -165 11 -324 13 -352 l2 -53 316 0 316 0 16 78 c8 42 19 85 22
95 6 15 3 17 -21 12 -16 -3 -80 -9 -141 -12 l-113 -6 0 93 0 93 110 -7 110 -6
6 27 c3 16 8 34 10 41 2 8 7 36 10 63 l6 48 -121 -6 -121 -6 0 81 0 82 53 0
c28 0 83 -5 121 -10 38 -6 71 -8 74 -5 6 5 19 153 28 305 3 57 6 109 7 115 2
11 -94 13 -491 8z"/>
<path d="M8932 4923 c-235 -3 -253 -5 -248 -21 3 -9 7 -71 11 -137 3 -66 8
-140 10 -165 5 -41 24 -545 26 -697 l2 -63 317 0 317 0 15 78 c9 42 19 85 23
94 6 15 1 16 -47 10 -29 -4 -93 -7 -142 -7 l-90 0 1 33 c1 17 2 57 2 89 l1 56
109 -7 109 -6 10 42 c6 24 14 64 17 90 l7 47 -121 -6 -121 -6 0 83 0 83 93 -6
c50 -4 106 -9 124 -13 38 -8 37 -16 53 235 6 96 12 179 13 185 2 12 -87 14
-491 9z"/>
<path d="M10873 4923 l-152 -4 -6 -37 c-22 -130 -69 -374 -91 -467 -48 -206
-85 -360 -109 -456 -14 -53 -25 -101 -25 -108 0 -8 25 -11 92 -9 l92 3 16 52
c25 85 34 85 75 4 l36 -72 47 34 c50 36 105 67 120 67 5 0 15 -20 22 -45 l13
-45 188 0 c104 0 189 3 189 7 0 3 -13 58 -29 122 -16 64 -50 206 -76 316 -25
110 -53 228 -61 263 -8 35 -24 109 -35 165 -12 56 -26 127 -32 157 l-12 55
-55 0 c-30 1 -123 0 -207 -2z m37 -767 c37 -102 38 -99 -55 -115 -78 -14 -115
-14 -115 0 0 19 80 241 92 256 15 18 30 -10 78 -141z"/>
<path d="M12060 4805 c0 -78 -4 -125 -10 -125 -6 0 -68 54 -138 120 l-127 119
-175 1 -176 0 8 -87 c4 -49 10 -133 13 -188 3 -55 7 -116 10 -135 5 -39 25
-461 26 -555 1 -119 -5 -113 115 -117 l104 -3 0 86 c0 123 12 299 20 299 7 0
93 -58 208 -140 35 -25 119 -89 187 -142 69 -54 127 -98 130 -98 3 0 5 48 5
108 0 177 33 902 43 967 1 6 -46 11 -120 13 l-123 3 0 -126z"/>
<path d="M12617 4923 l-258 -3 5 -48 c3 -26 8 -123 12 -215 5 -149 8 -167 23
-163 9 2 58 7 109 11 l92 7 1 -34 c1 -18 3 -44 4 -58 2 -14 8 -135 14 -270 7
-135 14 -260 17 -277 l5 -33 164 0 165 0 0 48 c1 47 2 72 20 421 6 102 14 189
19 194 6 6 47 7 110 1 l99 -9 8 145 c4 80 8 177 8 215 l1 70 -180 0 c-99 0
-296 -1 -438 -2z"/>
<path d="M7905 4883 c6 -74 17 -229 21 -288 15 -259 24 -468 24 -565 0 -63 3
-132 6 -153 l7 -37 316 2 316 3 6 50 c4 28 11 68 17 89 7 22 10 41 9 42 -1 2
-36 -1 -77 -6 -41 -4 -104 -11 -139 -14 l-64 -6 7 203 c4 111 11 292 16 402 5
110 10 226 10 258 l0 57 -239 0 -239 0 3 -37z"/>
<path d="M5034 4893 c9 -31 25 -329 36 -658 6 -176 13 -341 16 -367 l6 -48
171 0 c95 0 236 3 313 7 l141 6 17 80 c10 43 20 85 22 92 4 10 -5 11 -38 4
-24 -4 -87 -8 -141 -9 l-98 0 3 86 3 87 107 -1 c104 -2 108 -1 113 21 3 12 11
50 19 85 l14 62 -124 0 -125 0 3 78 3 77 65 -1 c36 0 92 -4 125 -8 l61 -7 3
78 c1 43 4 80 6 83 2 4 7 62 10 131 4 68 9 127 12 132 2 4 -165 7 -372 7 -354
0 -376 -1 -371 -17z"/>
</g>
</svg>
